<svg fill="#FFFFFF" xmlns="http://www.w3.org/2000/svg" xmlns:xlink="http://www.w3.org/1999/xlink" version="1.1" x="0px" y="0px" viewBox="0 0 32 32" enable-background="new 0 0 32 32" xml:space="preserve"><g><g><path fill="#FFFFFF" d="M19.9,23.1c-2.9,0-5.7-1.1-7.7-3.2S8.9,15,8.9,12.1s1.1-5.7,3.2-7.7c2.1-2.1,4.8-3.2,7.7-3.2    c2.9,0,5.7,1.1,7.7,3.2c2.1,2.1,3.2,4.8,3.2,7.7s-1.1,5.7-3.2,7.7C25.6,21.9,22.8,23.1,19.9,23.1z M19.9,2.6c-2.5,0-4.9,1-6.7,2.8    c-1.8,1.8-2.8,4.2-2.8,6.7s1,4.9,2.8,6.7c1.8,1.8,4.2,2.8,6.7,2.8s4.9-1,6.7-2.8c1.8-1.8,2.8-4.2,2.8-6.7c0-2.5-1-4.9-2.8-6.7    S22.4,2.6,19.9,2.6z"></path></g><g><rect x="11" y="18.9" transform="matrix(0.7071 0.7071 -0.7071 0.7071 17.7629 -2.3704)" fill="#FFFFFF" width="1.5" height="2.7"></rect></g><g><path fill="#FFFFFF" d="M3.8,30.9c-0.7,0-1.4-0.3-1.9-0.8c-1-1-1-2.7,0-3.8l5.7-5.7c1-1,2.7-1,3.8,0c1,1,1,2.7,0,3.8l-5.7,5.7    C5.2,30.6,4.5,30.9,3.8,30.9z M9.5,21.4c-0.3,0-0.6,0.1-0.8,0.3L3,27.4c-0.4,0.4-0.4,1.2,0,1.6c0.4,0.4,1.2,0.4,1.6,0l5.7-5.7    c0.4-0.4,0.4-1.2,0-1.6C10.1,21.5,9.8,21.4,9.5,21.4z"></path></g></g></svg>