<svg fill="#FFFFFF" xmlns="http://www.w3.org/2000/svg" xmlns:xlink="http://www.w3.org/1999/xlink" version="1.1" x="0px" y="0px" viewBox="0 0 100 100" enable-background="new 0 0 100 100" xml:space="preserve"><g><path d="M52.336,41.438c-0.889,0-1.667,0.353-2.253,1.019c-0.466,0.529-1.324,0.859-2.239,0.859c-0.916,0-1.774-0.33-2.24-0.858   c-0.586-0.667-1.365-1.02-2.254-1.02h-4.461c-7.069,0-13.023,4.802-14.813,11.312h-1.276c-2.24,0-4.063,1.822-4.063,4.063   c0,2.241,1.823,4.064,4.063,4.064h1.276c1.789,6.509,7.743,11.311,14.813,11.311c6.81,0,12.719-4.371,14.706-10.877   c1.184-3.871,4.563-6.373,8.611-6.373h19.059V41.438H52.336z M22.799,58.876c-1.138,0-2.063-0.926-2.063-2.064   c0-1.137,0.926-2.063,2.063-2.063h0.869c-0.092,0.676-0.155,1.361-0.155,2.063c0,0.702,0.063,1.387,0.155,2.064H22.799z    M79.264,52.937H62.205c-4.947,0-9.078,3.058-10.523,7.789c-1.728,5.659-6.87,9.461-12.793,9.461c-7.375,0-13.375-6-13.375-13.375   s6-13.375,13.375-13.375h4.461c0.31,0,0.548,0.108,0.752,0.341c0.848,0.963,2.246,1.538,3.742,1.538   c1.495,0,2.894-0.575,3.741-1.539c0.205-0.231,0.443-0.34,0.752-0.34h26.928V52.937z"></path><path d="M38.888,48.688c-4.479,0-8.124,3.645-8.124,8.123c0,4.48,3.645,8.125,8.124,8.125s8.124-3.645,8.124-8.125   C47.012,52.333,43.368,48.688,38.888,48.688z M38.888,63.437c-3.652,0-6.624-2.973-6.624-6.625s2.972-6.623,6.624-6.623   s6.624,2.971,6.624,6.623S42.541,63.437,38.888,63.437z"></path><path d="M47.887,41.063c0.553,0,1-0.448,1-1v-11.25c0-0.553-0.447-1-1-1s-1,0.447-1,1v11.25   C46.887,40.615,47.334,41.063,47.887,41.063z"></path><path d="M49.95,41.063c0.256,0,0.512-0.098,0.707-0.293l7.955-7.955c0.391-0.391,0.391-1.023,0-1.414s-1.023-0.391-1.414,0   l-7.955,7.955c-0.391,0.391-0.391,1.023,0,1.414C49.438,40.966,49.694,41.063,49.95,41.063z"></path><path d="M45.033,40.771c0.195,0.195,0.451,0.293,0.707,0.293s0.512-0.098,0.707-0.293c0.391-0.391,0.391-1.023,0-1.414   l-7.955-7.955c-0.391-0.391-1.023-0.391-1.414,0s-0.391,1.023,0,1.414L45.033,40.771z"></path></g></svg>