<svg fill="#FFFFFF" xmlns="http://www.w3.org/2000/svg" xmlns:xlink="http://www.w3.org/1999/xlink" version="1.1" x="0px" y="0px" viewBox="0 0 100 100" enable-background="new 0 0 100 100" xml:space="preserve"><path d="M84.293,47.381v-7.727c0-0.025-0.013-0.045-0.014-0.07c0.002-0.034,0.014-0.066,0.013-0.1  c-0.012-0.547-0.373-1.024-0.894-1.187L48.02,27.279c-0.246-0.077-0.511-0.077-0.757,0L11.884,38.297  c-0.522,0.162-0.882,0.64-0.894,1.187c-0.013,0.547,0.325,1.04,0.839,1.226l9.939,3.602v21.665c0,0.061,0.027,0.114,0.035,0.173  c0.013,0.089,0.022,0.176,0.053,0.261c0.028,0.077,0.072,0.142,0.113,0.212c0.042,0.07,0.08,0.14,0.136,0.202  c0.06,0.067,0.133,0.115,0.206,0.168c0.048,0.035,0.082,0.083,0.136,0.111c2.524,1.332,11.781,5.676,24.927,5.676  c11.701,0,19.763-3.092,24.467-5.687c0.051-0.028,0.082-0.075,0.128-0.109c0.072-0.053,0.142-0.103,0.201-0.17  c0.054-0.062,0.093-0.129,0.134-0.199c0.042-0.071,0.083-0.138,0.111-0.216c0.029-0.083,0.039-0.167,0.051-0.254  c0.008-0.057,0.034-0.108,0.034-0.168V44.679l9.245-3.35v6.052c-2.692,0.586-4.717,2.982-4.717,5.848  c0,3.304,2.687,5.991,5.991,5.991c3.304,0,5.991-2.687,5.991-5.991C89.01,50.363,86.985,47.967,84.293,47.381z M69.953,65.213  c-4.52,2.369-11.947,5.019-22.578,5.019c-11.592,0-19.955-3.504-23.059-5.037v-19.96l22.891,8.295  c0.141,0.051,0.287,0.076,0.434,0.076c0.147,0,0.294-0.026,0.434-0.076l21.878-7.928V65.213z M47.641,50.979L16.253,39.604  l31.388-9.776l31.388,9.776L47.641,50.979z M83.019,56.672c-1.899,0-3.444-1.545-3.444-3.444s1.545-3.444,3.444-3.444  s3.444,1.545,3.444,3.444S84.918,56.672,83.019,56.672z"></path></svg>