<svg fill="#FFFFFF" xmlns="http://www.w3.org/2000/svg" xmlns:xlink="http://www.w3.org/1999/xlink" version="1.1" x="0px" y="0px" viewBox="0 0 32 32" enable-background="new 0 0 32 32" xml:space="preserve"><g><path d="M14,1H2C1.448,1,1,1.448,1,2v12c0,0.552,0.448,1,1,1h12c0.552,0,1-0.448,1-1V2C15,1.448,14.552,1,14,1z M13,13H3V3h10V13z"></path><path d="M14,17H2c-0.552,0-1,0.448-1,1v12c0,0.552,0.448,1,1,1h12c0.552,0,1-0.448,1-1V18C15,17.448,14.552,17,14,17z M13,29H3V19   h10V29z"></path><path d="M30,17H18c-0.552,0-1,0.448-1,1v12c0,0.552,0.448,1,1,1h12c0.552,0,1-0.448,1-1V18C31,17.448,30.552,17,30,17z M29,29H19   V19h10V29z"></path><path d="M30,1H18c-0.552,0-1,0.448-1,1v12c0,0.552,0.448,1,1,1h12c0.552,0,1-0.448,1-1V2C31,1.448,30.552,1,30,1z M29,13H19V3h10   V13z"></path></g></svg>