<svg xmlns="http://www.w3.org/2000/svg" xmlns:xlink="http://www.w3.org/1999/xlink" width="40" height="40">
  <svg xmlns="http://www.w3.org/2000/svg" viewBox="0 0 32 32">
    <path stroke-linecap="round" stroke-linejoin="round" d="M16 4c-3.994 0-7.25 3.26-7.25 7.258 0 2.738 1.327 4.884 2.732 7.004 1.406 2.12 2.922 4.26 3.68 7.093A.89.89 0 0 0 16 26a.89.89 0 0 0 .838-.645c.827-3.091 2.338-5.216 3.724-7.271 1.387-2.055 2.688-4.095 2.688-6.826C23.25 7.26 19.994 4 16 4zm0 1a6.254 6.254 0 0 1 6.25 6.258c0 2.415-1.14 4.228-2.516 6.267-1.326 1.967-2.841 4.178-3.736 7.266-.837-2.861-2.342-5.061-3.682-7.082-1.392-2.1-2.566-4.036-2.566-6.451A6.254 6.254 0 0 1 16 5zm0 2.5a3.508 3.508 0 0 0-3.5 3.5c0 1.927 1.573 3.5 3.5 3.5s3.5-1.573 3.5-3.5-1.573-3.5-3.5-3.5zm0 1c1.387 0 2.5 1.113 2.5 2.5s-1.113 2.5-2.5 2.5a2.492 2.492 0 0 1-2.5-2.5c0-1.387 1.113-2.5 2.5-2.5zM19.53 24c-.57.012-.68.813-.135.979.66.23 1.027.53 1.109.673.041.072.037.086.025.13-.012.043-.058.134-.199.253-.565.475-2.364.965-4.33.965-1.966 0-3.765-.49-4.33-.965-.141-.119-.187-.21-.2-.254-.011-.043-.015-.057.026-.129.083-.144.448-.443 1.11-.673.534-.178.414-.965-.149-.975a.508.508 0 0 0-.182.031c-.778.271-1.348.6-1.646 1.121-.15.261-.205.59-.123.889.081.298.273.547.521.756C12.021 27.636 13.894 28 16 28s3.98-.364 4.973-1.2c.248-.208.44-.457.521-.755a1.193 1.193 0 0 0-.123-.889c-.298-.522-.868-.85-1.646-1.12a.5.5 0 0 0-.196-.036z" color="#000" font-family="sans-serif" font-weight="400" overflow="visible" style="line-height:normal;text-indent:0;text-align:start;text-decoration-line:none;text-decoration-style:solid;text-decoration-color:#000;text-transform:none;block-progression:tb;isolation:auto;mix-blend-mode:normal" white-space="normal"/>
  </svg>
</svg>
