<svg fill="#FFFFFF" xmlns:dc="http://purl.org/dc/elements/1.1/" xmlns:cc="http://creativecommons.org/ns#" xmlns:rdf="http://www.w3.org/1999/02/22-rdf-syntax-ns#" xmlns:svg="http://www.w3.org/2000/svg" xmlns="http://www.w3.org/2000/svg" xmlns:sodipodi="http://sodipodi.sourceforge.net/DTD/sodipodi-0.dtd" xmlns:inkscape="http://www.inkscape.org/namespaces/inkscape" version="1.1" x="0px" y="0px" viewBox="0 0 100 100"><g transform="translate(0,-952.36218)"><path style="text-indent:0;text-transform:none;direction:ltr;block-progression:tb;baseline-shift:baseline;color:#000000;enable-background:accumulate;" d="m 24.000002,972.36215 c -7.721299,0 -13.999999,6.27866 -13.999999,13.99996 l 0,31.99999 c 0,7.7214 6.2787,14.0001 13.999999,14.0001 l 52,0 c 7.721301,0 13.999996,-6.2787 13.999996,-14.0001 l 0,-31.99999 c 0,-7.7213 -6.278695,-13.99996 -13.999996,-13.99996 l -52,0 z m 0,3.99996 52,0 c 5.5745,0 9.999996,4.4255 9.999996,10 l 0,31.99999 c 0,5.5746 -4.425496,10.0001 -9.999996,10.0001 l -52,0 c -5.5745,0 -9.999999,-4.4255 -9.999999,-10.0001 l 0,-31.99999 c 0,-5.5745 4.425499,-10 9.999999,-10 z m 16.875,11 a 2.0002002,2.0002002 0 0 0 -1.875,2 l 0,25.99999 a 2.0002002,2.0002002 0 0 0 1.781301,2 2.0002002,2.0002002 0 0 0 1.156199,-0.2188 l 24,-13 a 2.0002002,2.0002002 0 0 0 0,-3.5312 l -24,-12.99999 a 2.0002002,2.0002002 0 0 0 -1.0625,-0.25 z m 2.125,5.375 17.8125,9.62499 -17.8125,9.6562 0,-19.28119 z" fill="#FFFFFF" fill-opacity="1" stroke="none" marker="none" visibility="visible" display="inline" overflow="visible"></path></g></svg>