<svg xmlns="http://www.w3.org/2000/svg" xmlns:xlink="http://www.w3.org/1999/xlink" width="40" height="40">
  <svg xmlns="http://www.w3.org/2000/svg" viewBox="0 0 48 48">
    <path fill-rule="evenodd" stroke-linejoin="round" stroke-width="2" d="M16 0c-1.851 0-3.406 1.284-3.855 3H5C2.801 3 1 4.801 1 7v37c0 2.199 1.801 4 4 4h30c2.199 0 4-1.801 4-4v-4.059c4.491-.499 8.002-4.32 8.002-8.941s-3.51-8.442-8.002-8.941V7c0-2.199-1.801-4-4-4h-7.145c-.45-1.716-2.004-3-3.855-3h-8zm0 2h8c1.125 0 2 .875 2 2s-.875 2-2 2h-8c-1.125 0-2-.875-2-2s.875-2 2-2zM5 5h7.145c.45 1.716 2.004 3 3.855 3h8c1.851 0 3.406-1.284 3.855-3H35c1.125 0 2 .875 2 2v15.06c-4.49.502-7.998 4.32-7.998 8.94 0 4.62 3.509 8.438 7.998 8.94V44c0 1.125-.875 2-2 2H5c-1.125 0-2-.875-2-2V7c0-1.125.875-2 2-2zm5 9a1 1 0 0 0-1 1 1 1 0 0 0 1 1h20a1 1 0 0 0 1-1 1 1 0 0 0-1-1H10zm0 8a1 1 0 1 0 0 2h18a1 1 0 1 0 0-2H10zm28.002 2c3.878 0 7 3.122 7 7s-3.122 7-7 7-7-3.122-7-7 3.122-7 7-7zm3.174 4a1 1 0 0 0-.756.375l-3.375 4.219-1.72-1.375a1 1 0 0 0-1.407.156 1 1 0 0 0 .158 1.406l2.5 2a1 1 0 0 0 1.404-.156l4-5a1 1 0 0 0-.154-1.406 1 1 0 0 0-.65-.219zM10 30a1 1 0 1 0 0 2h15a1 1 0 1 0 0-2H10zm0 8a1 1 0 1 0 0 2h18a1 1 0 1 0 0-2H10z" color="#000" font-family="sans-serif" font-weight="400" overflow="visible" style="line-height:normal;text-indent:0;text-align:start;text-decoration-line:none;text-decoration-style:solid;text-decoration-color:#000;text-transform:none;block-progression:tb;isolation:auto;mix-blend-mode:normal;marker:none" white-space="normal"/>
  </svg>
</svg>
