<svg fill="#FFFFFF" xmlns="http://www.w3.org/2000/svg" xmlns:xlink="http://www.w3.org/1999/xlink" version="1.1" x="0px" y="0px" viewBox="0 0 32 32" enable-background="new 0 0 32 32" xml:space="preserve"><g><path d="M15,4c0-0.55-0.45-1-1-1H4C3.45,3,3,3.45,3,4v10c0,0.55,0.45,1,1,1h10c0.55,0,1-0.45,1-1V4z"></path><path d="M29,4c0-0.55-0.45-1-1-1H18c-0.55,0-1,0.45-1,1v10c0,0.55,0.45,1,1,1h10c0.55,0,1-0.45,1-1V4z"></path><path d="M18,29h10c0.55,0,1-0.45,1-1V18c0-0.55-0.45-1-1-1H18c-0.55,0-1,0.45-1,1v10C17,28.55,17.45,29,18,29z"></path><path d="M14,17H4c-0.55,0-1,0.45-1,1v10c0,0.55,0.45,1,1,1h10c0.55,0,1-0.45,1-1V18C15,17.45,14.55,17,14,17z"></path></g></svg>