<svg height='40px' width='40px'  fill="#000000" xmlns:dc="http://purl.org/dc/elements/1.1/" xmlns:cc="http://creativecommons.org/ns#" xmlns:rdf="http://www.w3.org/1999/02/22-rdf-syntax-ns#" xmlns:svg="http://www.w3.org/2000/svg" xmlns="http://www.w3.org/2000/svg" xmlns:sodipodi="http://sodipodi.sourceforge.net/DTD/sodipodi-0.dtd" xmlns:inkscape="http://www.inkscape.org/namespaces/inkscape" viewBox="0 0 12.7 12.7" version="1.1" x="0px" y="0px"><g transform="translate(0,-284.29999)"><path style="color:#000000;font-style:normal;font-variant:normal;font-weight:normal;font-stretch:normal;font-size:medium;line-height:normal;font-family:sans-serif;font-variant-ligatures:normal;font-variant-position:normal;font-variant-caps:normal;font-variant-numeric:normal;font-variant-alternates:normal;font-feature-settings:normal;text-indent:0;text-align:start;text-decoration:none;text-decoration-line:none;text-decoration-style:solid;text-decoration-color:#000000;letter-spacing:normal;word-spacing:normal;text-transform:none;writing-mode:lr-tb;direction:ltr;text-orientation:mixed;dominant-baseline:auto;baseline-shift:baseline;text-anchor:start;white-space:normal;shape-padding:0;clip-rule:nonzero;display:inline;overflow:visible;visibility:visible;opacity:1;isolation:auto;mix-blend-mode:normal;color-interpolation:sRGB;color-interpolation-filters:linearRGB;solid-color:#000000;solid-opacity:1;vector-effect:none;fill:#000000;fill-opacity:1;fill-rule:evenodd;stroke:none;stroke-width:0.26458332;stroke-linecap:round;stroke-linejoin:round;stroke-miterlimit:4;stroke-dasharray:none;stroke-dashoffset:0;stroke-opacity:1;color-rendering:auto;image-rendering:auto;shape-rendering:auto;text-rendering:auto;enable-background:accumulate" d="m 5.6577515,287.07906 c -0.070546,0.0463 -0.1198014,0.11313 -0.1438388,0.18009 -0.02404,0.0669 -0.028164,0.13121 -0.031854,0.19051 -0.00738,0.11861 -0.00906,0.22479 -0.069033,0.34607 -0.059972,0.12129 -0.1823551,0.2651 -0.463734,0.42756 -0.2813813,0.16246 -0.4677714,0.19651 -0.6027918,0.18781 -0.1350231,-0.009 -0.2271326,-0.0599 -0.3335387,-0.11284 -0.053202,-0.0265 -0.111627,-0.0539 -0.1816242,-0.0666 -0.07,-0.0127 -0.1524427,-0.005 -0.2278078,0.0327 -0.1507302,0.0759 -0.2741978,0.23463 -0.4500122,0.53915 -0.1758145,0.30452 -0.2534259,0.49131 -0.2437883,0.6598 0.00482,0.0842 0.040103,0.16124 0.086062,0.21554 0.045957,0.0543 0.098462,0.0892 0.1479751,0.12211 0.099022,0.0657 0.1894332,0.11985 0.2644836,0.23243 0.075048,0.11258 0.138753,0.29103 0.1387506,0.61593 2e-7,0.32491 -0.062855,0.5047 -0.1379051,0.61728 -0.07505,0.11258 -0.1661619,0.16712 -0.2651845,0.23281 -0.049513,0.0328 -0.1017256,0.0662 -0.1476836,0.12046 -0.04596,0.0543 -0.080601,0.13276 -0.085418,0.217 -0.00964,0.16849 0.065527,0.3547 0.2413418,0.65922 0.1758126,0.30451 0.300822,0.46229 0.4515519,0.53818 0.075365,0.038 0.1580174,0.0486 0.2280143,0.036 0.069999,-0.0127 0.1266287,-0.0419 0.1798295,-0.0684 0.1064067,-0.0529 0.2003834,-0.10543 0.3354058,-0.11413 0.1350197,-0.009 0.3211053,0.0259 0.602487,0.18837 0.281379,0.16245 0.4044062,0.30629 0.4643796,0.42758 0.059971,0.12128 0.061475,0.22893 0.068856,0.34753 0.00369,0.0593 0.00664,0.12299 0.030675,0.18994 0.024039,0.067 0.072716,0.1337 0.1432642,0.18 0.1410933,0.0926 0.3421156,0.12145 0.6937453,0.12145 0.3516297,0 0.5504773,-0.028 0.6915696,-0.1206 0.070549,-0.0463 0.1192967,-0.11501 0.1433341,-0.18197 0.02404,-0.0669 0.028669,-0.12932 0.032359,-0.18863 0.00738,-0.1186 0.00906,-0.22477 0.069036,-0.34606 0.059972,-0.12128 0.1818479,-0.26699 0.4632292,-0.42944 0.2813788,-0.16247 0.4677689,-0.19652 0.6027894,-0.18782 0.135023,0.009 0.2295238,0.0613 0.3359298,0.11422 0.053202,0.0264 0.109743,0.0544 0.1797403,0.0671 0.069997,0.0127 0.1538221,0.003 0.2291872,-0.0351 0.1507301,-0.0759 0.2741976,-0.23462 0.4500122,-0.53914 0.1758144,-0.30452 0.2515392,-0.49081 0.2419016,-0.6593 -0.00482,-0.0842 -0.040103,-0.16124 -0.086062,-0.21554 -0.045957,-0.0543 -0.098462,-0.0892 -0.1479751,-0.12211 -0.099022,-0.0657 -0.1894333,-0.11985 -0.2644811,-0.23242 -0.07505,-0.11259 -0.1387529,-0.29103 -0.1387531,-0.61594 -2e-7,-0.32491 0.06336,-0.50281 0.1384097,-0.61539 0.07505,-0.11258 0.166162,-0.16712 0.2651846,-0.23282 0.049513,-0.0328 0.1031075,-0.0686 0.1490653,-0.12285 0.045961,-0.0543 0.079219,-0.13036 0.084039,-0.2146 0.00964,-0.16849 -0.065527,-0.3547 -0.2413419,-0.65922 -0.1758153,-0.30452 -0.2994427,-0.46468 -0.4501727,-0.54058 -0.075365,-0.0379 -0.1593993,-0.0462 -0.2293961,-0.0336 -0.069997,0.0127 -0.1271334,0.0401 -0.1803343,0.0665 -0.1064067,0.0529 -0.1984967,0.10492 -0.3335165,0.11364 -0.1350223,0.009 -0.3211081,-0.0259 -0.602487,-0.18838 -0.2813816,-0.16246 -0.4044088,-0.3063 -0.4643822,-0.42759 -0.059971,-0.12128 -0.060971,-0.22704 -0.068352,-0.34564 -0.00369,-0.0593 -0.00852,-0.12249 -0.032561,-0.18944 -0.024037,-0.0669 -0.073221,-0.13558 -0.1437689,-0.18188 -0.1410932,-0.0926 -0.3416109,-0.11957 -0.6932405,-0.11957 -0.3516297,0 -0.5504773,0.028 -0.6915697,0.1206 z m 0.1458274,0.21975 c 0.052232,-0.0343 0.212404,-0.0755 0.5459336,-0.0755 0.3335295,-10e-6 0.4957702,0.0413 0.5480004,0.0756 0.026118,0.0171 0.031415,0.027 0.039692,0.05 0.00827,0.023 0.013774,0.0629 0.017125,0.11674 0.0067,0.10764 0.00819,0.27065 0.095649,0.44752 0.087455,0.17686 0.2570773,0.35892 0.5690639,0.53905 0.311984,0.18012 0.5544616,0.23599 0.7513629,0.22329 0.1969014,-0.0127 0.3388193,-0.0929 0.4353916,-0.14093 0.048287,-0.024 0.085558,-0.0392 0.1096564,-0.0435 0.024099,-0.004 0.035269,-0.005 0.063169,0.009 0.055799,0.0281 0.1726948,0.14794 0.3394612,0.43679 0.1667638,0.28884 0.2111389,0.44818 0.2075705,0.51055 -0.00178,0.0312 -0.00826,0.0424 -0.024081,0.0611 -0.015822,0.0187 -0.046693,0.0433 -0.091631,0.0731 -0.089873,0.0596 -0.2293785,0.14095 -0.3388241,0.30512 -0.109443,0.16418 -0.1837783,0.40277 -0.1837768,0.76302 -1.1e-6,0.36025 0.074396,0.59739 0.1838413,0.76157 0.1094458,0.16418 0.2493062,0.24783 0.3391807,0.30746 0.044935,0.0298 0.076359,0.0537 0.092181,0.0724 0.015822,0.0187 0.020555,0.0295 0.022341,0.0607 0.00357,0.0624 -0.039709,0.22345 -0.2064748,0.5123 -0.1667632,0.28885 -0.2846289,0.40687 -0.3404274,0.43497 -0.027902,0.014 -0.038295,0.013 -0.062394,0.009 -0.024097,-0.004 -0.062353,-0.0191 -0.1106396,-0.0431 -0.096573,-0.048 -0.2370658,-0.12782 -0.4339686,-0.14052 -0.1969001,-0.0127 -0.4408555,0.0438 -0.7528407,0.22397 -0.3119851,0.18013 -0.4819524,0.36191 -0.5694081,0.53878 -0.087458,0.17686 -0.087627,0.34023 -0.094327,0.44788 -0.00335,0.0538 -0.0092,0.0928 -0.017475,0.11589 -0.00828,0.0231 -0.013329,0.0318 -0.039446,0.049 -0.052232,0.0343 -0.2137832,0.0779 -0.5473154,0.0779 -0.3335296,0 -0.4943884,-0.0437 -0.5466186,-0.078 -0.026118,-0.0172 -0.033302,-0.0265 -0.041579,-0.0495 -0.00827,-0.023 -0.013269,-0.061 -0.016618,-0.11484 -0.0067,-0.10765 -0.00819,-0.27065 -0.095649,-0.44753 -0.087457,-0.17687 -0.255698,-0.36132 -0.567682,-0.54144 -0.3119866,-0.18013 -0.555846,-0.2336 -0.7527474,-0.22091 -0.1969014,0.0127 -0.3388192,0.0929 -0.4353915,0.14093 -0.048287,0.024 -0.083671,0.0387 -0.1077698,0.043 -0.024099,0.004 -0.035774,0.003 -0.063673,-0.0112 -0.055799,-0.0281 -0.1740767,-0.14556 -0.3408405,-0.4344 -0.1667664,-0.28885 -0.2097596,-0.45057 -0.2061913,-0.51294 0.00178,-0.0312 0.00688,-0.04 0.022702,-0.0587 0.015822,-0.0187 0.046693,-0.0433 0.091628,-0.0731 0.089873,-0.0596 0.2307602,-0.14334 0.3402059,-0.30751 0.109443,-0.16418 0.1823964,-0.40038 0.1823975,-0.76063 -1.5e-6,-0.36025 -0.073016,-0.59979 -0.1824621,-0.76396 -0.1094456,-0.16418 -0.2506879,-0.24544 -0.34056,-0.30507 -0.044937,-0.0298 -0.074979,-0.0561 -0.090799,-0.0747 -0.015823,-0.0187 -0.02194,-0.0272 -0.023723,-0.0584 -0.00357,-0.0624 0.039706,-0.22346 0.2064723,-0.51231 0.1667658,-0.28884 0.2846288,-0.40687 0.34043,-0.43496 0.027899,-0.014 0.039674,-0.0154 0.063774,-0.011 0.024097,0.004 0.060467,0.0196 0.1087531,0.0436 0.096573,0.048 0.2370658,0.12782 0.4339686,0.14052 0.1969001,0.0127 0.4413602,-0.042 0.7533453,-0.22209 0.3119878,-0.18011 0.4814478,-0.36379 0.5689035,-0.54066 0.087458,-0.17686 0.088134,-0.33834 0.094834,-0.44598 0.00335,-0.0538 0.0092,-0.0929 0.017473,-0.11591 0.00828,-0.023 0.014714,-0.0342 0.040828,-0.0514 z"></path><path style="color:#000000;font-style:normal;font-variant:normal;font-weight:normal;font-stretch:normal;font-size:medium;line-height:normal;font-family:sans-serif;font-variant-ligatures:normal;font-variant-position:normal;font-variant-caps:normal;font-variant-numeric:normal;font-variant-alternates:normal;font-feature-settings:normal;text-indent:0;text-align:start;text-decoration:none;text-decoration-line:none;text-decoration-style:solid;text-decoration-color:#000000;letter-spacing:normal;word-spacing:normal;text-transform:none;writing-mode:lr-tb;direction:ltr;text-orientation:mixed;dominant-baseline:auto;baseline-shift:baseline;text-anchor:start;white-space:normal;shape-padding:0;clip-rule:nonzero;display:inline;overflow:visible;visibility:visible;opacity:1;isolation:auto;mix-blend-mode:normal;color-interpolation:sRGB;color-interpolation-filters:linearRGB;solid-color:#000000;solid-opacity:1;vector-effect:none;fill:#000000;fill-opacity:1;fill-rule:evenodd;stroke:none;stroke-width:0.26458332;stroke-linecap:round;stroke-linejoin:round;stroke-miterlimit:4;stroke-dasharray:none;stroke-dashoffset:0;stroke-opacity:1;color-rendering:auto;image-rendering:auto;shape-rendering:auto;text-rendering:auto;enable-background:accumulate" d="m 6.3496094,289.19531 c -0.8021224,0 -1.4550782,0.65296 -1.4550782,1.45508 0,0.80212 0.6529558,1.45508 1.4550782,1.45508 0.8021224,0 1.4550781,-0.65296 1.4550781,-1.45508 0,-0.80212 -0.6529557,-1.45508 -1.4550781,-1.45508 z m 0,0.26367 c 0.6591309,0 1.1914062,0.53228 1.1914062,1.19141 0,0.65913 -0.5322753,1.18945 -1.1914062,1.18945 -0.659131,0 -1.1894532,-0.53032 -1.1894532,-1.18945 0,-0.65913 0.5303222,-1.19141 1.1894532,-1.19141 z"></path></g></svg>