<svg xmlns="http://www.w3.org/2000/svg" width="40" height="40"><g class="jvs-layer selected"><path d="M39.078 29.654l-6.943-5.229a2.227 2.227 0 0 0-2.897.209l-3.447 3.422a.934.934 0 0 1-1.01.221 23.556 23.556 0 0 1-7.915-5.184 23.474 23.474 0 0 1-5.183-7.92.935.935 0 0 1 .221-1.01l3.422-3.429a2.23 2.23 0 0 0 .208-2.899L10.307.89A2.215 2.215 0 0 0 7.6.207L1.287 3.169A2.192 2.192 0 0 0 .025 5.492C.656 9.642 2.96 20.017 11.387 28.48c8.427 8.526 18.911 10.881 23.09 11.513.115.01.232.01.347 0a2.203 2.203 0 0 0 2.001-1.263l2.96-6.315a2.23 2.23 0 0 0-.707-2.76zm-.467 2.179l-2.96 6.315a.934.934 0 0 1-.997.543c-3.94-.581-13.666-2.747-21.746-10.483l-.038-.032c-.215-.208-.43-.417-.631-.631l-.48-.486-.031-.032C3.995 18.969 1.83 9.23 1.249 5.29a.935.935 0 0 1 .543-.997L8.104 1.33a.96.96 0 0 1 1.168.297L14.5 8.574a.96.96 0 0 1-.089 1.263l-3.427 3.423c-.624.62-.82 1.55-.499 2.368a24.63 24.63 0 0 0 5.466 8.349 24.705 24.705 0 0 0 8.345 5.469 2.19 2.19 0 0 0 2.361-.5l3.428-3.428a.96.96 0 0 1 1.262-.089l6.943 5.23a.96.96 0 0 1 .322 1.174z"/><path d="M23.462 14.731a2.525 2.525 0 0 1 2.525 2.526.631.631 0 1 0 1.262 0 3.788 3.788 0 0 0-3.787-3.789.632.632 0 0 0 0 1.263zm0-4.42a6.945 6.945 0 0 1 6.943 6.946.631.631 0 1 0 1.263 0 8.208 8.208 0 0 0-8.206-8.21.632.632 0 0 0 0 1.264z"/><path d="M23.462 6.522c5.926 0 10.73 4.806 10.73 10.735a.631.631 0 1 0 1.263 0c0-6.626-5.37-11.998-11.993-11.998a.632.632 0 0 0 0 1.263z"/></g></svg>