<svg xmlns="http://www.w3.org/2000/svg" xmlns:xlink="http://www.w3.org/1999/xlink" width="40" height="40">
  <svg xmlns="http://www.w3.org/2000/svg" data-name="Layer 1" viewBox="0 0 100 100">
    <path d="M29.53 57.23H20a2 2 0 0 0-2 2v20a2 2 0 0 0 2 2h9.53a2 2 0 0 0 2-2v-20a2 2 0 0 0-2-2zm-2 20H22v-16h5.53zm18.82-26.29h-9.53a2 2 0 0 0-2 2v26.25a2 2 0 0 0 2 2h9.53a2 2 0 0 0 2-2V52.94a2 2 0 0 0-2-2zm-2 26.25h-5.53V54.94h5.53zM63.18 45.7h-9.53a2 2 0 0 0-2 2v31.49a2 2 0 0 0 2 2h9.53a2 2 0 0 0 2-2V47.7a2 2 0 0 0-2-2zm-2 31.49h-5.53V49.7h5.53zM80 35.44h-9.53a2 2 0 0 0-2 2v41.75a2 2 0 0 0 2 2H80a2 2 0 0 0 2-2V37.44a2 2 0 0 0-2-2zm-2 41.75h-5.53V39.44H78zM20.51 47.93a2 2 0 0 1 1.76-2.22c.3 0 29.27-3.66 49.06-22.9h-4.39a2 2 0 0 1 0-4h9.53a2 2 0 0 1 2 2v9.54a2 2 0 0 1-4 0v-5C53.73 45.85 24 49.53 22.73 49.69h-.23a2 2 0 0 1-1.99-1.76z"/>
  </svg>
</svg>
