<svg fill="#FFFFFF" xmlns="http://www.w3.org/2000/svg" xmlns:xlink="http://www.w3.org/1999/xlink" xmlns:sketch="http://www.bohemiancoding.com/sketch/ns" viewBox="0 0 73 58" version="1.1" x="0px" y="0px"><title>icon-back</title><desc>Created with Sketch.</desc><g stroke="none" stroke-width="1" fill="none" fill-rule="evenodd" sketch:type="MSPage"><g sketch:type="MSArtboardGroup" transform="translate(-63.000000, -459.000000)" fill="#FFFFFF"><g sketch:type="MSLayerGroup" transform="translate(63.000000, 459.000000)"><path d="M29.2991263,57.9267368 C28.6106211,57.9267368 27.9228842,57.6665 27.3972842,57.1445 L1.01585263,30.9437632 C-0.0345789474,29.9012895 -0.0345789474,28.2093684 1.01585263,27.1668947 L27.3972842,0.966157895 C28.4484842,-0.0778421053 30.1497684,-0.0778421053 31.2009684,0.966157895 C32.2514,2.00863158 32.2514,3.70055263 31.2009684,4.74302632 L6.72137895,29.0549474 L31.2009684,53.3676316 C32.2514,54.4101053 32.2514,56.1020263 31.2009684,57.1445 C30.6753684,57.6665 29.9868632,57.9267368 29.2991263,57.9267368" sketch:type="MSShapeGroup"></path><path d="M69.6750421,31.726 L2.91769474,31.726 C1.43233684,31.726 0.228221053,30.5301316 0.228221053,29.0549474 C0.228221053,27.5805263 1.43233684,26.3838947 2.91769474,26.3838947 L69.6750421,26.3838947 C71.1604,26.3838947 72.3645158,27.5805263 72.3645158,29.0549474 C72.3645158,30.5301316 71.1604,31.726 69.6750421,31.726" sketch:type="MSShapeGroup"></path></g></g></g></svg>