<svg xmlns="http://www.w3.org/2000/svg" xmlns:xlink="http://www.w3.org/1999/xlink" width="40" height="40">
  <svg xmlns="http://www.w3.org/2000/svg" viewBox="0 0 100 100">
    <path d="M79.7 41.9v-1.8c0-.8-.7-1.5-1.5-1.5H65.6V26.2l7.4-7.4v8.5h-4v9h10.5v-9h-3.7V15.9l1.1-1.1L49.1 3.5l-26 13.1 9.6 9.6v12.4H20.9c-.8 0-1.5.7-1.5 1.5v1.8H13v54.7h74V41.9h-7.3zm-3.1-8.4H72v-3.1h4.6v3.1zm.2 8.4v44.2H55.3l-4.2 3v-42l5-5.6h20.7v.4zM49.2 6.7l22.6 9.2-7.9 7.9c-4.5-2.5-9.5-3.9-14.7-3.9-5.2 0-10.2 1.3-14.7 3.8l-6.4-6.4L49.2 6.7zm13.4 19.7V33c-3.8-3-8.6-4.7-13.5-4.7S39.4 30 35.6 33v-6.6c4.1-2.3 8.7-3.6 13.5-3.6 4.8.1 9.5 1.3 13.5 3.6zM35.3 37.3c3.5-3.9 8.6-6.1 13.9-6.1 5.3 0 10.3 2.2 13.9 6.1l1.1 1.3h-8.7c-.4 0-.8.2-1.1.5l-4.8 5.3-4.8-5.3c-.3-.3-.7-.5-1.1-.5h-9.6l1.2-1.3zm-12.9 4.2h20.7l5 5.6v42l-2.2-1.6-1.7-1.2-.4-.3H22.3V41.5zM16 93.6V44.8h3.5V89H43l5.8 4.1.7.5H16zm68 0H49.7l.7-.5 5.8-4.1h23.5V44.8H84v48.8z"/>
    <path d="M25.1 45.9h18.3v2.9H25.1zm0 6.6h18.3v2.9H25.1zm0 6.6h18.3V62H25.1zm0 6.6h18.3v2.9H25.1zm0 6.6h18.3v2.9H25.1zm0 6.6h18.3v2.9H25.1zm29.7-33h18.3v2.9H54.8zm-.3 6.6h18.3v2.9H54.5zm0 6.6h18.3V62H54.5zm0 6.6h18.3v2.9H54.5zm0 6.6h18.3v2.9H54.5zm0 6.6h18.3v2.9H54.5z"/>
  </svg>
</svg>
