<svg xmlns="http://www.w3.org/2000/svg" xmlns:xlink="http://www.w3.org/1999/xlink" width="40" height="40">
  <svg xmlns="http://www.w3.org/2000/svg" viewBox="0 0 100 100">
    <path d="M50.95 10.853c-21.586 0-39.147 17.562-39.147 39.148S29.364 89.148 50.95 89.148 90.098 71.587 90.098 50 72.536 10.853 50.95 10.853zm0 73.295C32.121 84.148 16.803 68.83 16.803 50c0-18.829 15.318-34.148 34.147-34.148S85.098 31.171 85.098 50c0 18.83-15.319 34.148-34.148 34.148z"/>
    <path d="M36.143 46.544a5.202 5.202 0 0 0 5.196-5.196c0-2.865-2.331-5.196-5.196-5.196s-5.196 2.331-5.196 5.196a5.2 5.2 0 0 0 5.196 5.196zm29.615 0c2.865 0 5.196-2.331 5.196-5.196s-2.331-5.196-5.196-5.196-5.196 2.331-5.196 5.196 2.331 5.196 5.196 5.196zm3.265 5.796a2.5 2.5 0 0 0-2.5 2.5c0 8.309-6.695 14.574-15.573 14.574S35.376 63.148 35.376 54.84a2.5 2.5 0 1 0-5 0c0 11.159 8.845 19.574 20.574 19.574 11.729 0 20.573-8.415 20.573-19.574a2.5 2.5 0 0 0-2.5-2.5z"/>
  </svg>
</svg>
