<svg fill="#FFFFFF" xmlns:dc="http://purl.org/dc/elements/1.1/" xmlns:cc="http://creativecommons.org/ns#" xmlns:rdf="http://www.w3.org/1999/02/22-rdf-syntax-ns#" xmlns:svg="http://www.w3.org/2000/svg" xmlns="http://www.w3.org/2000/svg" xmlns:sodipodi="http://sodipodi.sourceforge.net/DTD/sodipodi-0.dtd" xmlns:inkscape="http://www.inkscape.org/namespaces/inkscape" version="1.1" x="0px" y="0px" viewBox="0 0 100 100"><g transform="translate(0,-952.36218)"><path style="text-indent:0;text-transform:none;direction:ltr;block-progression:tb;baseline-shift:baseline;color:#000000;enable-background:accumulate;" d="m 50.000073,1028.3618 c 0.7149,-0.028 1.5413,-0.3223 2.0625,-0.8125 l 18.99995,-18 c 1.24529,-1.0511 1.22032,-3.0729 0.0982,-4.2545 -1.12211,-1.1817 -3.10929,-1.2786 -4.2232,-0.089 l -13.9375,13.1874 0,-39.03124 c 0,-1.6568 -1.34315,-3 -2.99995,-3 -1.6569,0 -3,1.3432 -3,3 l 0,39.03124 -13.9375,-13.1874 c -1.114,-1.1894 -3.1096,-1.0921 -4.2317,0.09 -1.1221,1.1816 -1.127,3.2322 0.1067,4.2541 l 19,18 c 0.5818,0.5475 1.2604,0.8045 2.0625,0.8125 z" fill="#FFFFFF" fill-opacity="1" stroke="none" marker="none" visibility="visible" display="inline" overflow="visible"></path></g></svg>