<svg xmlns="http://www.w3.org/2000/svg" xmlns:xlink="http://www.w3.org/1999/xlink" width="40" height="40">
  <svg xmlns="http://www.w3.org/2000/svg" version="1" viewBox="0 0 100 100">
    <path d="M86.4 71.7c-1.1-3.1-2.2-6.5-2.4-7.5 1.6-2.8 2.4-6 2.4-9.3 0-10.5-8.5-19-19-19-2.7 0-5.3.6-7.6 1.6-4.3-7.4-12.1-12.3-20.7-12.6-6.7-.3-13.1 2-18.1 6.5s-7.9 10.7-8.2 17.4c-.2 4.3.7 8.7 2.7 12.5-.2 1.1-1.6 5.4-2.9 9.2-.1.3 0 .7.2 1 .2.3.6.4.9.4l9.7-1.4c3.9 2.8 8.5 4.4 13.4 4.6H38c6.2 0 12-2.2 16.6-6.3 3.4 3.1 7.9 5 12.8 5 3.6 0 7.1-1 10.1-2.9l7.7 2c.4.1.7 0 1-.3.3-.2.4-.6.2-.9zm-49.5 1.4c-4.6-.2-8.9-1.8-12.6-4.5-.3-.2-.6-.2-.9-.1l-8.3 1.2c2.8-8.3 2.6-8.6 2.4-9.1-1.9-3.6-2.8-7.7-2.6-11.7.6-12.8 11.5-22.6 24.2-22.1 7.9.4 15 4.8 19 11.6-5.7 3.3-9.6 9.4-9.6 16.5 0 4.8 1.8 9.2 4.8 12.5-4.6 4-10.4 6-16.4 5.7zM77.8 69c-.3-.1-.7-.1-1 .1-2.8 1.9-6 2.8-9.4 2.8-9.4 0-17-7.6-17-17s7.6-17 17-17 17 7.6 17 17c0 3-.8 5.9-2.3 8.6-.3.4-.4.6 1.8 7.1L77.8 69z"/>
    <circle cx="61" cy="55.5" r="1.8"/>
    <circle cx="67.4" cy="55.5" r="1.8"/>
    <circle cx="73.6" cy="55.5" r="1.8"/>
    <circle cx="30" cy="50.2" r="1.8"/>
    <circle cx="36.5" cy="50.2" r="1.8"/>
    <circle cx="42.6" cy="50.2" r="1.8"/>
  </svg>
</svg>
