<svg xmlns="http://www.w3.org/2000/svg" viewBox="0 0 92.77 77.84">
  <g data-name="Livello 2">
    <g data-name="Livello 66">
      <g data-name="Livello 2">
        <g data-name="Livello 3">
          <path d="M46.4 73.83a35 35 0 0 1-34.65-30.7l6.69 5.06L20.85 45 9.1 36.11 0 48.13l3.19 2.42 4.69-6.2a38.91 38.91 0 0 0 75.86 5.56l-3.83-1.13A35.11 35.11 0 0 1 46.4 73.83zM46.4 4a35 35 0 0 1 34.66 30.72l-6.73-5.09-2.41 3.19 11.75 8.89 9.1-12-3.19-2.42-4.64 6.16a38.92 38.92 0 0 0-75.86-5.5l3.84 1.13A35.11 35.11 0 0 1 46.4 4z"/>
        </g>
      </g>
    </g>
  </g>
</svg>
