<svg fill="#FFFFFF" xmlns:dc="http://purl.org/dc/elements/1.1/" xmlns:cc="http://creativecommons.org/ns#" xmlns:rdf="http://www.w3.org/1999/02/22-rdf-syntax-ns#" xmlns:svg="http://www.w3.org/2000/svg" xmlns="http://www.w3.org/2000/svg" xmlns:sodipodi="http://sodipodi.sourceforge.net/DTD/sodipodi-0.dtd" xmlns:inkscape="http://www.inkscape.org/namespaces/inkscape" version="1.1" x="0px" y="0px" viewBox="0 0 100 100"><g transform="translate(0,-952.36218)"><path style="text-indent:0;text-transform:none;direction:ltr;block-progression:tb;baseline-shift:baseline;color:#000000;enable-background:accumulate;" d="m 88.718706,959.37063 -54,7.99997 c -0.950226,0.135 -1.728196,1.0403 -1.71875,2 -0.0021,18.5479 0,37.0727 0,55.6251 -2.573838,-2.2414 -6.144939,-3.625 -10,-3.625 -7.528155,0 -13.9999996,5.1801 -13.9999996,12 0,6.8198 6.4718486,12 13.9999996,12 7.528152,0 14,-5.1802 14,-12 l 0,-44.2813 50,-7.4063 0,35.3126 c -2.573838,-2.2414 -6.144939,-3.625 -10,-3.625 -7.528155,0 -14,5.1801 -14,12 0,6.8198 6.471849,12 14,12 7.528152,0 14,-5.1802 14,-12 1.96e-4,-21.3353 0,-42.668 0,-64.00007 0.01128,-1.14783 -1.144764,-2.16135 -2.28125,-2 z m -1.71875,4.31247 0,13.9375 -50,7.4063 0,-13.9375 z m -10,53.6876 c 5.726674,0 10,3.7742 10,8 0,4.2257 -4.273322,8 -10,8 -5.726677,0 -10,-3.7743 -10,-8 0,-4.2258 4.273327,-8 10,-8 z m -54,8 c 5.726674,0 10,3.7742 10,8 0,4.2257 -4.273322,8 -10,8 -5.726677,0 -10,-3.7743 -10,-8 0,-4.2258 4.273327,-8 10,-8 z" fill="#FFFFFF" fill-opacity="1" stroke="none" marker="none" visibility="visible" display="inline" overflow="visible"></path></g></svg>