<svg fill="#FFFFFF" xmlns="http://www.w3.org/2000/svg" xmlns:xlink="http://www.w3.org/1999/xlink" version="1.1" x="0px" y="0px" viewBox="37.362 -30.863 63.458 86.039" enable-background="new 37.362 -30.863 63.458 86.039" xml:space="preserve"><g><circle fill="none" cx="56.299" cy="50.608" r="3.711"></circle><path fill="none" d="M69.526-0.588H43.072c-1.262,0-2.284,1.022-2.284,2.284v41.68c0,1.262,1.022,2.284,2.284,2.284h26.455   c1.261,0,2.284-1.022,2.284-2.284V1.696C71.811,0.435,70.787-0.588,69.526-0.588z"></path><path d="M72.952-3.823H39.646c-1.262,0-2.284,1.022-2.284,2.284v54.432c0,1.26,1.022,2.283,2.284,2.283h33.306   c1.261,0,2.283-1.023,2.283-2.283V-1.54C75.235-2.801,74.213-3.823,72.952-3.823z M56.299,54.319c-2.05,0-3.711-1.661-3.711-3.711   c0-2.049,1.661-3.711,3.711-3.711s3.711,1.662,3.711,3.711C60.01,52.658,58.349,54.319,56.299,54.319z M71.811,43.376   c0,1.262-1.023,2.284-2.284,2.284H43.072c-1.262,0-2.284-1.022-2.284-2.284V1.696c0-1.262,1.022-2.284,2.284-2.284h26.455   c1.261,0,2.284,1.022,2.284,2.284V43.376z"></path><path d="M68.697-30.863v2.72c16.213,0,29.402,13.19,29.402,29.402h2.72C100.819-16.454,86.409-30.863,68.697-30.863z"></path><path d="M67.02-22.645v2.72c12.606,0,22.862,10.255,22.862,22.862h2.72C92.602-11.169,81.125-22.645,67.02-22.645z"></path><path d="M65.698-16.174v2.72c9.767,0,17.712,7.946,17.712,17.712h2.721C86.131-7.008,76.965-16.174,65.698-16.174z"></path></g></svg>