<svg fill="#FFFFFF" xmlns="http://www.w3.org/2000/svg" viewBox="0 0 32 32" x="0px" y="0px"><title>education</title><g data-name="Layer 22"><path d="M27.79,21.88a.5.5,0,0,0-.62-.35c-2.14.6-3.12,2.77-3.55,4.3a3.65,3.65,0,0,0-1.83-1.13.5.5,0,0,0-.21,1,2.54,2.54,0,0,1,1.67,1.43.59.59,0,0,0,.54.37h.06a.59.59,0,0,0,.52-.48c.17-.9.88-3.89,3.06-4.5A.5.5,0,0,0,27.79,21.88Z"></path><path d="M27,19.61V6.5A2.5,2.5,0,0,0,24.5,4H23V3.5A1.5,1.5,0,0,0,21.5,2h-1A1.5,1.5,0,0,0,19,3.5v.56H10V3.5A1.5,1.5,0,0,0,8.5,2h-1A1.5,1.5,0,0,0,6,3.5V4H4.5A2.5,2.5,0,0,0,2,6.5v20A2.5,2.5,0,0,0,4.5,29H21.35A5.49,5.49,0,1,0,27,19.61ZM20,3.5a.5.5,0,0,1,.5-.5h1a.5.5,0,0,1,.5.5v2a.5.5,0,0,1-.5.5h-1a.5.5,0,0,1-.5-.5ZM7,3.5A.5.5,0,0,1,7.5,3h1a.5.5,0,0,1,.5.5v2a.5.5,0,0,1-.5.5h-1A.5.5,0,0,1,7,5.5ZM4.5,5H6v.5A1.5,1.5,0,0,0,7.5,7h1A1.5,1.5,0,0,0,10,5.5V5.06h9V5.5A1.5,1.5,0,0,0,20.5,7h1A1.5,1.5,0,0,0,23,5.5V5h1.5A1.5,1.5,0,0,1,26,6.5V8H3V6.5A1.5,1.5,0,0,1,4.5,5ZM3,26.5V9H26V19.21A5.46,5.46,0,0,0,25,19V11.5A1.5,1.5,0,0,0,23.5,10H5.5A1.5,1.5,0,0,0,4,11.5v14A1.5,1.5,0,0,0,5.5,27h14l.1,0a5.52,5.52,0,0,0,.66,1H4.5A1.5,1.5,0,0,1,3,26.5Zm18-6.24V19h3v0A5.47,5.47,0,0,0,21,20.26ZM5.5,26a.5.5,0,0,1-.5-.5V23H8v3ZM12,11v3H9V11Zm8,10.34a5.51,5.51,0,0,0-.4.66H17V19h3ZM12,18H9V15h3Zm1-3h3v3H13ZM8,18H5V15H8ZM5,19H8v3H5Zm4,0h3v3H9Zm4,0h3v3H13Zm4-1V15h3v3Zm4-3h3v3H21Zm3-1H21V11h2.5a.5.5,0,0,1,.5.5Zm-4-3v3H17V11Zm-4,0v3H13V11ZM8,14H5V11.5a.5.5,0,0,1,.5-.5H8Zm1,9h3v3H9Zm4,3V23h3v3Zm4,0V23h2.19a5.38,5.38,0,0,0,0,3Zm7.47,3A4.5,4.5,0,1,1,29,24.5,4.5,4.5,0,0,1,24.5,29Z"></path></g></svg>