<svg xmlns="http://www.w3.org/2000/svg" xmlns:xlink="http://www.w3.org/1999/xlink" width="40" height="40">
  <svg xmlns="http://www.w3.org/2000/svg" viewBox="0 0 32 32">
    <g data-name="Layer 9">
      <path d="M28.19.18H11.33A2.56 2.56 0 0 0 9.47 1L3.24 2.39A2.57 2.57 0 0 0 1.3 5.46l5.45 24.35a2.58 2.58 0 0 0 3.08 1.95l6.61-1.48h11.75a2.57 2.57 0 0 0 2.57-2.57V2.75A2.57 2.57 0 0 0 28.19.18zm-16.86 1h16.86a1.57 1.57 0 0 1 1.57 1.57v11.52l-4.49-4.49a.5.5 0 0 0-.71 0l-6.33 6.33-3.18-3.18a.5.5 0 0 0-.71 0l-4.58 4.59V2.75a1.57 1.57 0 0 1 1.57-1.57zm-1.72 29.6a1.57 1.57 0 0 1-1.88-1.19L2.28 5.24a1.57 1.57 0 0 1 1.18-1.87l5.38-1.21a2.55 2.55 0 0 0-.08.59V27.7a2.57 2.57 0 0 0 2.57 2.57h.54zm18.58-1.51H11.33a1.57 1.57 0 0 1-1.57-1.57v-8.77L14.7 14l3.18 3.18a.5.5 0 0 0 .71 0l6.33-6.33 4.84 4.84v12a1.57 1.57 0 0 1-1.57 1.58z"/>
      <path d="M14.57 11.73a2.5 2.5 0 1 0-2.5-2.5 2.5 2.5 0 0 0 2.5 2.5zm0-4a1.5 1.5 0 1 1-1.5 1.5 1.5 1.5 0 0 1 1.5-1.5z"/>
    </g>
  </svg>
</svg>
