<svg xmlns="http://www.w3.org/2000/svg" xmlns:xlink="http://www.w3.org/1999/xlink" width="40" height="40"><svg xmlns="http://www.w3.org/2000/svg" viewBox="0 0 344 313" fill-rule="evenodd" clip-rule="evenodd" shape-rendering="geometricPrecision" text-rendering="geometricPrecision" image-rendering="optimizeQuality" transform="matrix(.69 0 0 .69 15.5 15.5)"><path d="M166 2c3-3 9-3 12 0l112 87V64c0-13 20-13 20 0v41l30 23c10 8-2 24-12 16l-18-14v172c0 6-4 11-10 11H44c-6 0-10-5-10-10V130l-18 14c-10 8-22-8-12-16L166 2zM54 115v178h71v-95c0-6 4-10 10-10h74c6 0 10 4 10 10v95h71V115L172 23 54 115zm91 178h54v-85h-54v85z" fill-rule="nonzero"/></svg></svg>