<svg xmlns="http://www.w3.org/2000/svg" xmlns:xlink="http://www.w3.org/1999/xlink" width="40" height="40">
  <svg xmlns="http://www.w3.org/2000/svg" viewBox="0 0 91 73">
    <path fill-rule="evenodd" d="M87.215 31.661c-.731-.048-17.983-1.17-28.946 5.54-3.809 2.33-6.766 5.532-9.017 8.766V32.311c.816.045 1.735.077 2.762.077 5.84 0 14.755-.99 22.848-5.941 13.5-8.26 15.205-21.676 15.271-22.243a3.153 3.153 0 0 0-.707-2.382A3.156 3.156 0 0 0 87.215.687C86.484.638 69.232-.482 58.269 6.226c-3.809 2.331-6.766 5.533-9.017 8.766V8.64a3.159 3.159 0 1 0-6.319 0v21.047c-2.012-2.577-4.767-5.161-8.553-7.415-13.22-7.869-30.084-6.328-30.796-6.258a3.157 3.157 0 0 0-2.81 3.661c.094.573 2.456 14.127 13.925 20.955 8.855 5.27 22.754 6.128 28.234 6.255v22.844a3.16 3.16 0 1 0 6.319 0v-6.444a48.85 48.85 0 0 0 2.762.078c5.84 0 14.755-.991 22.848-5.942 13.5-8.26 15.205-21.676 15.271-22.242a3.155 3.155 0 0 0-.707-2.383 3.156 3.156 0 0 0-2.211-1.135zM61.567 11.617c6.453-3.95 16.131-4.642 21.422-4.699-1.278 3.76-4.334 9.799-11.425 14.139-7.558 4.622-16.257 5.12-21.113 4.971 1.675-4.118 5.143-10.757 11.116-14.411zM17.932 35.2c-5.744-3.419-8.615-9.272-9.935-13.025 5.303.018 15.17.777 23.15 5.527 6.888 4.1 9.417 9.438 10.345 12.808-5.689-.243-16.735-1.248-23.56-5.31zm53.632 16.831c-7.558 4.623-16.257 5.124-21.113 4.971 1.675-4.118 5.143-10.757 11.116-14.411 6.453-3.949 16.131-4.642 21.422-4.698-1.278 3.759-4.334 9.798-11.425 14.138z"/>
  </svg>
</svg>
