<svg fill="#FFFFFF" xmlns="http://www.w3.org/2000/svg" xmlns:xlink="http://www.w3.org/1999/xlink" version="1.1" x="0px" y="0px" viewBox="0 0 96 96" style="enable-background:new 0 0 96 96;" xml:space="preserve"><path d="M80.82,22.81c-0.17-0.33-0.51-0.54-0.89-0.54H35.56l-5.64-8.6c-0.18-0.28-0.5-0.45-0.84-0.45H16.07c-0.55,0-1,0.45-1,1  s0.45,1,1,1h12.48l4.62,7.05H24.5c-0.37,0-0.71,0.21-0.89,0.54c-0.17,0.33-0.15,0.73,0.06,1.03L51.22,63.7v17.07h-9.41  c-0.55,0-1,0.45-1,1s0.45,1,1,1h20.82c0.55,0,1-0.45,1-1s-0.45-1-1-1h-9.41V63.7l27.54-39.85C80.97,23.54,80.99,23.14,80.82,22.81z   M26.4,24.28h8.08l5.48,8.36h-7.78L26.4,24.28z M52.22,61.63l-18.66-27h37.31L52.22,61.63z M72.25,32.63H42.35l-5.48-8.36h41.16  L72.25,32.63z"></path></svg>